<mxfile host="Electron" agent="Mozilla/5.0 (Windows NT 10.0; Win64; x64) AppleWebKit/537.36 (KHTML, like Gecko) draw.io/25.0.2 Chrome/128.0.6613.186 Electron/32.2.5 Safari/537.36" version="25.0.2" pages="2">
  <diagram name="Loop Arch" id="zqez-DetPCXuACMKNpng">
    <mxGraphModel dx="3109" dy="1267" grid="1" gridSize="10" guides="1" tooltips="1" connect="1" arrows="1" fold="1" page="1" pageScale="1" pageWidth="850" pageHeight="1100" math="0" shadow="0">
      <root>
        <mxCell id="0" />
        <mxCell id="1" parent="0" />
        <mxCell id="NWJFrl7g2KLut4J3IGo0-12" value="Main Loop" style="swimlane;whiteSpace=wrap;html=1;" parent="1" vertex="1">
          <mxGeometry x="50" y="10" width="440" height="580" as="geometry" />
        </mxCell>
        <mxCell id="NWJFrl7g2KLut4J3IGo0-23" value="" style="endArrow=classic;html=1;rounded=0;exitX=1;exitY=0.5;exitDx=0;exitDy=0;entryX=0.5;entryY=0;entryDx=0;entryDy=0;edgeStyle=orthogonalEdgeStyle;" parent="NWJFrl7g2KLut4J3IGo0-12" source="NWJFrl7g2KLut4J3IGo0-79" target="NWJFrl7g2KLut4J3IGo0-79" edge="1">
          <mxGeometry width="50" height="50" relative="1" as="geometry">
            <mxPoint x="300" y="130" as="sourcePoint" />
            <mxPoint x="220" y="70" as="targetPoint" />
            <Array as="points">
              <mxPoint x="420" y="165" />
              <mxPoint x="420" y="40" />
              <mxPoint x="220" y="40" />
            </Array>
          </mxGeometry>
        </mxCell>
        <mxCell id="NWJFrl7g2KLut4J3IGo0-75" value="No" style="edgeLabel;html=1;align=center;verticalAlign=middle;resizable=0;points=[];" parent="NWJFrl7g2KLut4J3IGo0-23" vertex="1" connectable="0">
          <mxGeometry x="-0.7175" y="-1" relative="1" as="geometry">
            <mxPoint as="offset" />
          </mxGeometry>
        </mxCell>
        <mxCell id="NWJFrl7g2KLut4J3IGo0-77" value="NO" style="edgeLabel;html=1;align=center;verticalAlign=middle;resizable=0;points=[];" parent="NWJFrl7g2KLut4J3IGo0-23" vertex="1" connectable="0">
          <mxGeometry x="-0.7182" y="-1" relative="1" as="geometry">
            <mxPoint as="offset" />
          </mxGeometry>
        </mxCell>
        <mxCell id="NWJFrl7g2KLut4J3IGo0-24" value="Get Input" style="shape=parallelogram;perimeter=parallelogramPerimeter;whiteSpace=wrap;html=1;fixedSize=1;fillColor=#6a00ff;fontColor=#ffffff;strokeColor=#3700CC;" parent="NWJFrl7g2KLut4J3IGo0-12" vertex="1">
          <mxGeometry x="160" y="360" width="120" height="60" as="geometry" />
        </mxCell>
        <mxCell id="NWJFrl7g2KLut4J3IGo0-25" value="Send Input to Engine" style="shape=parallelogram;perimeter=parallelogramPerimeter;whiteSpace=wrap;html=1;fixedSize=1;fillColor=#6a00ff;fontColor=#ffffff;strokeColor=#3700CC;" parent="NWJFrl7g2KLut4J3IGo0-12" vertex="1">
          <mxGeometry x="140" y="480" width="160" height="60" as="geometry" />
        </mxCell>
        <mxCell id="NWJFrl7g2KLut4J3IGo0-26" value="" style="endArrow=classic;html=1;rounded=0;exitX=0.5;exitY=1;exitDx=0;exitDy=0;entryX=0.5;entryY=0;entryDx=0;entryDy=0;edgeStyle=orthogonalEdgeStyle;" parent="NWJFrl7g2KLut4J3IGo0-12" source="NWJFrl7g2KLut4J3IGo0-79" target="NWJFrl7g2KLut4J3IGo0-24" edge="1">
          <mxGeometry width="50" height="50" relative="1" as="geometry">
            <mxPoint x="220" y="190" as="sourcePoint" />
            <mxPoint x="130" y="400" as="targetPoint" />
          </mxGeometry>
        </mxCell>
        <mxCell id="NWJFrl7g2KLut4J3IGo0-76" value="YES" style="edgeLabel;html=1;align=center;verticalAlign=middle;resizable=0;points=[];" parent="NWJFrl7g2KLut4J3IGo0-26" vertex="1" connectable="0">
          <mxGeometry x="-0.0879" y="1" relative="1" as="geometry">
            <mxPoint as="offset" />
          </mxGeometry>
        </mxCell>
        <mxCell id="NWJFrl7g2KLut4J3IGo0-27" value="" style="endArrow=classic;html=1;rounded=0;exitX=0.5;exitY=1;exitDx=0;exitDy=0;entryX=0.5;entryY=0;entryDx=0;entryDy=0;" parent="NWJFrl7g2KLut4J3IGo0-12" source="NWJFrl7g2KLut4J3IGo0-24" target="NWJFrl7g2KLut4J3IGo0-25" edge="1">
          <mxGeometry width="50" height="50" relative="1" as="geometry">
            <mxPoint x="310" y="470" as="sourcePoint" />
            <mxPoint x="360" y="420" as="targetPoint" />
          </mxGeometry>
        </mxCell>
        <mxCell id="NWJFrl7g2KLut4J3IGo0-29" value="" style="endArrow=classic;html=1;rounded=0;exitX=0;exitY=0.5;exitDx=0;exitDy=0;entryX=0.5;entryY=0;entryDx=0;entryDy=0;edgeStyle=orthogonalEdgeStyle;fillColor=#bac8d3;strokeColor=#23445d;" parent="NWJFrl7g2KLut4J3IGo0-12" source="NWJFrl7g2KLut4J3IGo0-25" target="NWJFrl7g2KLut4J3IGo0-79" edge="1">
          <mxGeometry width="50" height="50" relative="1" as="geometry">
            <mxPoint x="390" y="350" as="sourcePoint" />
            <mxPoint x="220" y="70" as="targetPoint" />
            <Array as="points">
              <mxPoint x="30" y="510" />
              <mxPoint x="30" y="40" />
              <mxPoint x="220" y="40" />
            </Array>
          </mxGeometry>
        </mxCell>
        <mxCell id="NWJFrl7g2KLut4J3IGo0-79" value="Delta &amp;gt; 16.67 ms?" style="rhombus;whiteSpace=wrap;html=1;fillColor=#1ba1e2;fontColor=#ffffff;strokeColor=#006EAF;" parent="NWJFrl7g2KLut4J3IGo0-12" vertex="1">
          <mxGeometry x="145" y="90" width="150" height="150" as="geometry" />
        </mxCell>
        <mxCell id="NWJFrl7g2KLut4J3IGo0-28" value="Local Input Loop" style="swimlane;whiteSpace=wrap;html=1;" parent="1" vertex="1">
          <mxGeometry x="710" y="10" width="200" height="480" as="geometry" />
        </mxCell>
        <mxCell id="NWJFrl7g2KLut4J3IGo0-30" value="Poll input" style="shape=parallelogram;perimeter=parallelogramPerimeter;whiteSpace=wrap;html=1;fixedSize=1;fillColor=#6a00ff;fontColor=#ffffff;strokeColor=#3700CC;" parent="NWJFrl7g2KLut4J3IGo0-28" vertex="1">
          <mxGeometry x="50" y="60" width="120" height="60" as="geometry" />
        </mxCell>
        <mxCell id="NWJFrl7g2KLut4J3IGo0-31" value="Store Local input in DTO" style="shape=parallelogram;perimeter=parallelogramPerimeter;whiteSpace=wrap;html=1;fixedSize=1;fillColor=#6a00ff;fontColor=#ffffff;strokeColor=#3700CC;" parent="NWJFrl7g2KLut4J3IGo0-28" vertex="1">
          <mxGeometry x="12.5" y="160" width="175" height="80" as="geometry" />
        </mxCell>
        <mxCell id="NWJFrl7g2KLut4J3IGo0-32" value="" style="endArrow=classic;html=1;rounded=0;exitX=0.427;exitY=1.04;exitDx=0;exitDy=0;exitPerimeter=0;entryX=0.5;entryY=0;entryDx=0;entryDy=0;" parent="NWJFrl7g2KLut4J3IGo0-28" source="NWJFrl7g2KLut4J3IGo0-30" target="NWJFrl7g2KLut4J3IGo0-31" edge="1">
          <mxGeometry width="50" height="50" relative="1" as="geometry">
            <mxPoint x="-100" y="190" as="sourcePoint" />
            <mxPoint x="-50" y="140" as="targetPoint" />
          </mxGeometry>
        </mxCell>
        <mxCell id="NWJFrl7g2KLut4J3IGo0-80" value="INPUT STORAGE DTO" style="shape=hexagon;perimeter=hexagonPerimeter2;whiteSpace=wrap;html=1;fixedSize=1;fillColor=#fa6800;fontColor=#000000;strokeColor=#C73500;" parent="NWJFrl7g2KLut4J3IGo0-28" vertex="1">
          <mxGeometry x="40" y="280" width="120" height="80" as="geometry" />
        </mxCell>
        <mxCell id="NWJFrl7g2KLut4J3IGo0-83" value="Decode Input" style="shape=parallelogram;perimeter=parallelogramPerimeter;whiteSpace=wrap;html=1;fixedSize=1;fillColor=#6a00ff;fontColor=#ffffff;strokeColor=#3700CC;" parent="NWJFrl7g2KLut4J3IGo0-28" vertex="1">
          <mxGeometry x="40" y="400" width="120" height="60" as="geometry" />
        </mxCell>
        <mxCell id="NWJFrl7g2KLut4J3IGo0-85" value="" style="endArrow=classic;html=1;rounded=0;exitX=0.5;exitY=1;exitDx=0;exitDy=0;entryX=0.5;entryY=0;entryDx=0;entryDy=0;" parent="NWJFrl7g2KLut4J3IGo0-28" source="NWJFrl7g2KLut4J3IGo0-31" target="NWJFrl7g2KLut4J3IGo0-80" edge="1">
          <mxGeometry width="50" height="50" relative="1" as="geometry">
            <mxPoint x="270" y="270" as="sourcePoint" />
            <mxPoint x="320" y="220" as="targetPoint" />
          </mxGeometry>
        </mxCell>
        <mxCell id="NWJFrl7g2KLut4J3IGo0-86" value="" style="endArrow=classic;html=1;rounded=0;entryX=0.5;entryY=0;entryDx=0;entryDy=0;" parent="NWJFrl7g2KLut4J3IGo0-28" target="NWJFrl7g2KLut4J3IGo0-83" edge="1">
          <mxGeometry width="50" height="50" relative="1" as="geometry">
            <mxPoint x="100" y="360" as="sourcePoint" />
            <mxPoint x="160" y="370" as="targetPoint" />
            <Array as="points" />
          </mxGeometry>
        </mxCell>
        <mxCell id="NWJFrl7g2KLut4J3IGo0-33" value="Engin Tick" style="swimlane;whiteSpace=wrap;html=1;" parent="1" vertex="1">
          <mxGeometry x="50" y="690" width="1230" height="490" as="geometry" />
        </mxCell>
        <mxCell id="NWJFrl7g2KLut4J3IGo0-34" value="INPUT MESSAGE" style="shape=hexagon;perimeter=hexagonPerimeter2;whiteSpace=wrap;html=1;fixedSize=1;fillColor=#fa6800;fontColor=#000000;strokeColor=#C73500;" parent="NWJFrl7g2KLut4J3IGo0-33" vertex="1">
          <mxGeometry x="160" y="50" width="120" height="80" as="geometry" />
        </mxCell>
        <mxCell id="NWJFrl7g2KLut4J3IGo0-36" value="" style="endArrow=classic;html=1;rounded=0;exitX=0.5;exitY=1;exitDx=0;exitDy=0;entryX=0.5;entryY=0;entryDx=0;entryDy=0;" parent="NWJFrl7g2KLut4J3IGo0-33" source="NWJFrl7g2KLut4J3IGo0-34" edge="1">
          <mxGeometry width="50" height="50" relative="1" as="geometry">
            <mxPoint x="400" y="220" as="sourcePoint" />
            <mxPoint x="220" y="180" as="targetPoint" />
          </mxGeometry>
        </mxCell>
        <mxCell id="NWJFrl7g2KLut4J3IGo0-38" value="Message Logic" style="swimlane;fontStyle=0;childLayout=stackLayout;horizontal=1;startSize=30;horizontalStack=0;resizeParent=1;resizeParentMax=0;resizeLast=0;collapsible=1;marginBottom=0;whiteSpace=wrap;html=1;" parent="NWJFrl7g2KLut4J3IGo0-33" vertex="1">
          <mxGeometry x="150" y="180" width="140" height="150" as="geometry" />
        </mxCell>
        <mxCell id="NWJFrl7g2KLut4J3IGo0-39" value="INPUT" style="text;strokeColor=none;fillColor=none;align=left;verticalAlign=middle;spacingLeft=4;spacingRight=4;overflow=hidden;points=[[0,0.5],[1,0.5]];portConstraint=eastwest;rotatable=0;whiteSpace=wrap;html=1;" parent="NWJFrl7g2KLut4J3IGo0-38" vertex="1">
          <mxGeometry y="30" width="140" height="30" as="geometry" />
        </mxCell>
        <mxCell id="NWJFrl7g2KLut4J3IGo0-40" value="START" style="text;strokeColor=none;fillColor=none;align=left;verticalAlign=middle;spacingLeft=4;spacingRight=4;overflow=hidden;points=[[0,0.5],[1,0.5]];portConstraint=eastwest;rotatable=0;whiteSpace=wrap;html=1;" parent="NWJFrl7g2KLut4J3IGo0-38" vertex="1">
          <mxGeometry y="60" width="140" height="30" as="geometry" />
        </mxCell>
        <mxCell id="NWJFrl7g2KLut4J3IGo0-41" value="STOP" style="text;strokeColor=none;fillColor=none;align=left;verticalAlign=middle;spacingLeft=4;spacingRight=4;overflow=hidden;points=[[0,0.5],[1,0.5]];portConstraint=eastwest;rotatable=0;whiteSpace=wrap;html=1;" parent="NWJFrl7g2KLut4J3IGo0-38" vertex="1">
          <mxGeometry y="90" width="140" height="30" as="geometry" />
        </mxCell>
        <mxCell id="NWJFrl7g2KLut4J3IGo0-42" value="ADVANCE" style="text;strokeColor=none;fillColor=none;align=left;verticalAlign=middle;spacingLeft=4;spacingRight=4;overflow=hidden;points=[[0,0.5],[1,0.5]];portConstraint=eastwest;rotatable=0;whiteSpace=wrap;html=1;" parent="NWJFrl7g2KLut4J3IGo0-38" vertex="1">
          <mxGeometry y="120" width="140" height="30" as="geometry" />
        </mxCell>
        <mxCell id="NWJFrl7g2KLut4J3IGo0-51" value="Post to renderer" style="shape=parallelogram;perimeter=parallelogramPerimeter;whiteSpace=wrap;html=1;fixedSize=1;fillColor=#6a00ff;fontColor=#ffffff;strokeColor=#3700CC;" parent="NWJFrl7g2KLut4J3IGo0-33" vertex="1">
          <mxGeometry x="830" y="410" width="120" height="60" as="geometry" />
        </mxCell>
        <mxCell id="NWJFrl7g2KLut4J3IGo0-52" value="RollBack" style="shape=parallelogram;perimeter=parallelogramPerimeter;whiteSpace=wrap;html=1;fixedSize=1;fillColor=#6a00ff;fontColor=#ffffff;strokeColor=#3700CC;" parent="NWJFrl7g2KLut4J3IGo0-33" vertex="1">
          <mxGeometry x="830" y="70" width="120" height="60" as="geometry" />
        </mxCell>
        <mxCell id="NWJFrl7g2KLut4J3IGo0-53" value="Rollback?" style="rhombus;whiteSpace=wrap;html=1;fillColor=#1ba1e2;fontColor=#ffffff;strokeColor=#006EAF;" parent="NWJFrl7g2KLut4J3IGo0-33" vertex="1">
          <mxGeometry x="440" y="60" width="80" height="80" as="geometry" />
        </mxCell>
        <mxCell id="NWJFrl7g2KLut4J3IGo0-54" value="" style="endArrow=classic;html=1;rounded=0;exitX=1;exitY=0.5;exitDx=0;exitDy=0;entryX=0;entryY=0.5;entryDx=0;entryDy=0;" parent="NWJFrl7g2KLut4J3IGo0-33" source="NWJFrl7g2KLut4J3IGo0-53" target="NWJFrl7g2KLut4J3IGo0-52" edge="1">
          <mxGeometry width="50" height="50" relative="1" as="geometry">
            <mxPoint x="760" y="150" as="sourcePoint" />
            <mxPoint x="810" y="100" as="targetPoint" />
          </mxGeometry>
        </mxCell>
        <mxCell id="NWJFrl7g2KLut4J3IGo0-93" value="YES" style="edgeLabel;html=1;align=center;verticalAlign=middle;resizable=0;points=[];" parent="NWJFrl7g2KLut4J3IGo0-54" vertex="1" connectable="0">
          <mxGeometry x="-0.0594" relative="1" as="geometry">
            <mxPoint as="offset" />
          </mxGeometry>
        </mxCell>
        <mxCell id="NWJFrl7g2KLut4J3IGo0-89" value="Save Frame State" style="shape=parallelogram;perimeter=parallelogramPerimeter;whiteSpace=wrap;html=1;fixedSize=1;fillColor=#6a00ff;fontColor=#ffffff;strokeColor=#3700CC;" parent="NWJFrl7g2KLut4J3IGo0-33" vertex="1">
          <mxGeometry x="820" y="300" width="140" height="60" as="geometry" />
        </mxCell>
        <mxCell id="NWJFrl7g2KLut4J3IGo0-90" value="" style="endArrow=classic;html=1;rounded=0;exitX=0.5;exitY=1;exitDx=0;exitDy=0;entryX=0.5;entryY=0;entryDx=0;entryDy=0;" parent="NWJFrl7g2KLut4J3IGo0-33" source="NWJFrl7g2KLut4J3IGo0-89" target="NWJFrl7g2KLut4J3IGo0-51" edge="1">
          <mxGeometry width="50" height="50" relative="1" as="geometry">
            <mxPoint x="880" y="400" as="sourcePoint" />
            <mxPoint x="930" y="350" as="targetPoint" />
          </mxGeometry>
        </mxCell>
        <mxCell id="NWJFrl7g2KLut4J3IGo0-46" value="WORLD TICK" style="shape=parallelogram;perimeter=parallelogramPerimeter;whiteSpace=wrap;html=1;fixedSize=1;fillColor=#6a00ff;fontColor=#ffffff;strokeColor=#3700CC;" parent="NWJFrl7g2KLut4J3IGo0-33" vertex="1">
          <mxGeometry x="830" y="190" width="120" height="60" as="geometry" />
        </mxCell>
        <mxCell id="NWJFrl7g2KLut4J3IGo0-92" value="" style="endArrow=classic;html=1;rounded=0;exitX=1;exitY=0.5;exitDx=0;exitDy=0;entryX=0;entryY=0.5;entryDx=0;entryDy=0;" parent="NWJFrl7g2KLut4J3IGo0-33" source="NWJFrl7g2KLut4J3IGo0-39" target="NWJFrl7g2KLut4J3IGo0-53" edge="1">
          <mxGeometry width="50" height="50" relative="1" as="geometry">
            <mxPoint x="340" y="140" as="sourcePoint" />
            <mxPoint x="390" y="90" as="targetPoint" />
          </mxGeometry>
        </mxCell>
        <mxCell id="NWJFrl7g2KLut4J3IGo0-94" value="" style="endArrow=classic;html=1;rounded=0;exitX=0.5;exitY=1;exitDx=0;exitDy=0;entryX=0;entryY=0.5;entryDx=0;entryDy=0;edgeStyle=orthogonalEdgeStyle;" parent="NWJFrl7g2KLut4J3IGo0-33" source="NWJFrl7g2KLut4J3IGo0-53" target="NWJFrl7g2KLut4J3IGo0-46" edge="1">
          <mxGeometry width="50" height="50" relative="1" as="geometry">
            <mxPoint x="630" y="190" as="sourcePoint" />
            <mxPoint x="680" y="140" as="targetPoint" />
            <Array as="points">
              <mxPoint x="480" y="220" />
            </Array>
          </mxGeometry>
        </mxCell>
        <mxCell id="NWJFrl7g2KLut4J3IGo0-95" value="NO" style="edgeLabel;html=1;align=center;verticalAlign=middle;resizable=0;points=[];" parent="NWJFrl7g2KLut4J3IGo0-94" vertex="1" connectable="0">
          <mxGeometry x="0.173" relative="1" as="geometry">
            <mxPoint x="4" as="offset" />
          </mxGeometry>
        </mxCell>
        <mxCell id="NWJFrl7g2KLut4J3IGo0-96" value="" style="endArrow=classic;html=1;rounded=0;exitX=0.5;exitY=1;exitDx=0;exitDy=0;entryX=0.5;entryY=0;entryDx=0;entryDy=0;" parent="NWJFrl7g2KLut4J3IGo0-33" source="NWJFrl7g2KLut4J3IGo0-52" target="NWJFrl7g2KLut4J3IGo0-46" edge="1">
          <mxGeometry width="50" height="50" relative="1" as="geometry">
            <mxPoint x="950" y="180" as="sourcePoint" />
            <mxPoint x="1000" y="130" as="targetPoint" />
          </mxGeometry>
        </mxCell>
        <mxCell id="NWJFrl7g2KLut4J3IGo0-97" value="" style="endArrow=classic;html=1;rounded=0;exitX=0.5;exitY=1;exitDx=0;exitDy=0;entryX=0.5;entryY=0;entryDx=0;entryDy=0;" parent="NWJFrl7g2KLut4J3IGo0-33" source="NWJFrl7g2KLut4J3IGo0-46" target="NWJFrl7g2KLut4J3IGo0-89" edge="1">
          <mxGeometry width="50" height="50" relative="1" as="geometry">
            <mxPoint x="460" y="330" as="sourcePoint" />
            <mxPoint x="510" y="280" as="targetPoint" />
          </mxGeometry>
        </mxCell>
        <mxCell id="NWJFrl7g2KLut4J3IGo0-44" value="" style="endArrow=classic;startArrow=classic;html=1;rounded=0;exitX=1;exitY=0.5;exitDx=0;exitDy=0;entryX=0;entryY=0.5;entryDx=0;entryDy=0;edgeStyle=orthogonalEdgeStyle;fillColor=#008a00;strokeColor=#005700;strokeWidth=3;" parent="1" source="NWJFrl7g2KLut4J3IGo0-24" target="NWJFrl7g2KLut4J3IGo0-83" edge="1">
          <mxGeometry width="50" height="50" relative="1" as="geometry">
            <mxPoint x="520" y="510" as="sourcePoint" />
            <mxPoint x="570" y="460" as="targetPoint" />
            <Array as="points">
              <mxPoint x="610" y="400" />
              <mxPoint x="610" y="440" />
            </Array>
          </mxGeometry>
        </mxCell>
        <mxCell id="NWJFrl7g2KLut4J3IGo0-62" value="Renderer" style="swimlane;whiteSpace=wrap;html=1;" parent="1" vertex="1">
          <mxGeometry x="1000" y="10" width="510" height="640" as="geometry" />
        </mxCell>
        <mxCell id="NWJFrl7g2KLut4J3IGo0-64" value="Get Latest Render Data" style="shape=parallelogram;perimeter=parallelogramPerimeter;whiteSpace=wrap;html=1;fixedSize=1;fillColor=#6a00ff;fontColor=#ffffff;strokeColor=#3700CC;" parent="NWJFrl7g2KLut4J3IGo0-62" vertex="1">
          <mxGeometry x="157.5" y="120" width="175" height="60" as="geometry" />
        </mxCell>
        <mxCell id="NWJFrl7g2KLut4J3IGo0-65" value="RENDER DATA" style="shape=hexagon;perimeter=hexagonPerimeter2;whiteSpace=wrap;html=1;fixedSize=1;fillColor=#fa6800;fontColor=#000000;strokeColor=#C73500;" parent="NWJFrl7g2KLut4J3IGo0-62" vertex="1">
          <mxGeometry x="355" y="280" width="120" height="80" as="geometry" />
        </mxCell>
        <mxCell id="NWJFrl7g2KLut4J3IGo0-68" value="" style="endArrow=classic;startArrow=classic;html=1;rounded=0;exitX=1;exitY=0.5;exitDx=0;exitDy=0;entryX=0.5;entryY=0;entryDx=0;entryDy=0;edgeStyle=orthogonalEdgeStyle;" parent="NWJFrl7g2KLut4J3IGo0-62" source="NWJFrl7g2KLut4J3IGo0-64" target="NWJFrl7g2KLut4J3IGo0-65" edge="1">
          <mxGeometry width="50" height="50" relative="1" as="geometry">
            <mxPoint x="260" y="410" as="sourcePoint" />
            <mxPoint x="310" y="360" as="targetPoint" />
          </mxGeometry>
        </mxCell>
        <mxCell id="NWJFrl7g2KLut4J3IGo0-69" value="Render" style="shape=parallelogram;perimeter=parallelogramPerimeter;whiteSpace=wrap;html=1;fixedSize=1;fillColor=#6a00ff;fontColor=#ffffff;strokeColor=#3700CC;" parent="NWJFrl7g2KLut4J3IGo0-62" vertex="1">
          <mxGeometry x="185" y="290" width="120" height="60" as="geometry" />
        </mxCell>
        <mxCell id="NWJFrl7g2KLut4J3IGo0-70" value="" style="endArrow=classic;html=1;rounded=0;exitX=0.5;exitY=1;exitDx=0;exitDy=0;entryX=0.5;entryY=0;entryDx=0;entryDy=0;edgeStyle=orthogonalEdgeStyle;" parent="NWJFrl7g2KLut4J3IGo0-62" source="NWJFrl7g2KLut4J3IGo0-64" target="NWJFrl7g2KLut4J3IGo0-69" edge="1">
          <mxGeometry width="50" height="50" relative="1" as="geometry">
            <mxPoint x="180" y="410" as="sourcePoint" />
            <mxPoint x="230" y="360" as="targetPoint" />
          </mxGeometry>
        </mxCell>
        <mxCell id="NWJFrl7g2KLut4J3IGo0-72" value="Request Animation&lt;span style=&quot;background-color: initial;&quot;&gt;&amp;nbsp;Frame&lt;/span&gt;" style="shape=parallelogram;perimeter=parallelogramPerimeter;whiteSpace=wrap;html=1;fixedSize=1;fillColor=#6a00ff;fontColor=#ffffff;strokeColor=#3700CC;" parent="NWJFrl7g2KLut4J3IGo0-62" vertex="1">
          <mxGeometry x="135" y="490" width="220" height="60" as="geometry" />
        </mxCell>
        <mxCell id="NWJFrl7g2KLut4J3IGo0-73" value="" style="endArrow=classic;html=1;rounded=0;exitX=0.5;exitY=1;exitDx=0;exitDy=0;entryX=0.5;entryY=0;entryDx=0;entryDy=0;" parent="NWJFrl7g2KLut4J3IGo0-62" source="NWJFrl7g2KLut4J3IGo0-69" target="NWJFrl7g2KLut4J3IGo0-72" edge="1">
          <mxGeometry width="50" height="50" relative="1" as="geometry">
            <mxPoint x="370" y="480" as="sourcePoint" />
            <mxPoint x="420" y="430" as="targetPoint" />
          </mxGeometry>
        </mxCell>
        <mxCell id="NWJFrl7g2KLut4J3IGo0-74" value="" style="endArrow=classic;html=1;rounded=0;entryX=0.5;entryY=0;entryDx=0;entryDy=0;edgeStyle=orthogonalEdgeStyle;fillColor=#bac8d3;strokeColor=#23445d;strokeWidth=1;exitX=0.5;exitY=1;exitDx=0;exitDy=0;" parent="NWJFrl7g2KLut4J3IGo0-62" source="NWJFrl7g2KLut4J3IGo0-72" edge="1">
          <mxGeometry width="50" height="50" relative="1" as="geometry">
            <mxPoint x="260" y="560" as="sourcePoint" />
            <mxPoint x="245" y="120" as="targetPoint" />
            <Array as="points">
              <mxPoint x="245" y="580" />
              <mxPoint x="100" y="580" />
              <mxPoint x="100" y="60" />
              <mxPoint x="245" y="60" />
            </Array>
          </mxGeometry>
        </mxCell>
        <mxCell id="NWJFrl7g2KLut4J3IGo0-66" value="" style="endArrow=classic;html=1;rounded=0;exitX=1;exitY=0.5;exitDx=0;exitDy=0;entryX=1;entryY=0.5;entryDx=0;entryDy=0;edgeStyle=orthogonalEdgeStyle;elbow=vertical;fillColor=#008a00;strokeColor=#005700;strokeWidth=3;" parent="1" source="NWJFrl7g2KLut4J3IGo0-51" target="NWJFrl7g2KLut4J3IGo0-65" edge="1">
          <mxGeometry width="50" height="50" relative="1" as="geometry">
            <mxPoint x="1100" y="900" as="sourcePoint" />
            <mxPoint x="1150" y="850" as="targetPoint" />
            <Array as="points">
              <mxPoint x="1630" y="1120" />
              <mxPoint x="1630" y="330" />
            </Array>
          </mxGeometry>
        </mxCell>
        <mxCell id="NWJFrl7g2KLut4J3IGo0-78" value="" style="endArrow=classic;html=1;rounded=0;exitX=0.5;exitY=1;exitDx=0;exitDy=0;entryX=0.5;entryY=0;entryDx=0;entryDy=0;fillColor=#008a00;strokeColor=#005700;strokeWidth=3;" parent="1" source="NWJFrl7g2KLut4J3IGo0-25" target="NWJFrl7g2KLut4J3IGo0-34" edge="1">
          <mxGeometry width="50" height="50" relative="1" as="geometry">
            <mxPoint x="400" y="580" as="sourcePoint" />
            <mxPoint x="450" y="530" as="targetPoint" />
          </mxGeometry>
        </mxCell>
        <mxCell id="NWJFrl7g2KLut4J3IGo0-100" value="" style="endArrow=classic;startArrow=classic;html=1;rounded=0;entryX=1;entryY=0.5;entryDx=0;entryDy=0;exitX=0.5;exitY=0;exitDx=0;exitDy=0;edgeStyle=orthogonalEdgeStyle;" parent="1" source="NWJFrl7g2KLut4J3IGo0-98" target="NWJFrl7g2KLut4J3IGo0-52" edge="1">
          <mxGeometry width="50" height="50" relative="1" as="geometry">
            <mxPoint x="520" y="980" as="sourcePoint" />
            <mxPoint x="570" y="930" as="targetPoint" />
            <Array as="points">
              <mxPoint x="1160" y="790" />
            </Array>
          </mxGeometry>
        </mxCell>
        <mxCell id="NWJFrl7g2KLut4J3IGo0-98" value="FRAME STATE STORAGE" style="shape=hexagon;perimeter=hexagonPerimeter2;whiteSpace=wrap;html=1;fixedSize=1;fillColor=#fa6800;fontColor=#000000;strokeColor=#C73500;" parent="1" vertex="1">
          <mxGeometry x="1100" y="980" width="120" height="80" as="geometry" />
        </mxCell>
        <mxCell id="NWJFrl7g2KLut4J3IGo0-99" value="" style="endArrow=classic;startArrow=classic;html=1;rounded=0;entryX=1;entryY=0.5;entryDx=0;entryDy=0;" parent="1" target="NWJFrl7g2KLut4J3IGo0-89" edge="1">
          <mxGeometry width="50" height="50" relative="1" as="geometry">
            <mxPoint x="1100" y="1020" as="sourcePoint" />
            <mxPoint x="560" y="1110" as="targetPoint" />
          </mxGeometry>
        </mxCell>
      </root>
    </mxGraphModel>
  </diagram>
  <diagram id="r7PkN_sjjMoKqjJK9Tot" name="Finite State Machine Arch">
    <mxGraphModel dx="2578" dy="2103" grid="1" gridSize="10" guides="1" tooltips="1" connect="1" arrows="1" fold="1" page="1" pageScale="1" pageWidth="850" pageHeight="1100" math="0" shadow="0">
      <root>
        <mxCell id="0" />
        <mxCell id="1" parent="0" />
        <mxCell id="mlFN825ek47xAFWSFWhw-1" value="Vertical Container" style="swimlane;whiteSpace=wrap;html=1;fillColor=#60a917;fontColor=#ffffff;strokeColor=#2D7600;" vertex="1" parent="1">
          <mxGeometry x="-180" y="120" width="930" height="1080" as="geometry" />
        </mxCell>
        <mxCell id="ST6kr02EX80wUgen9KY--21" value="" style="edgeStyle=orthogonalEdgeStyle;rounded=0;orthogonalLoop=1;jettySize=auto;html=1;startArrow=classic;startFill=1;" edge="1" parent="mlFN825ek47xAFWSFWhw-1" source="ST6kr02EX80wUgen9KY--1" target="ST6kr02EX80wUgen9KY--2">
          <mxGeometry relative="1" as="geometry" />
        </mxCell>
        <mxCell id="ST6kr02EX80wUgen9KY--1" value="HandlePlayerEvent" style="shape=parallelogram;perimeter=parallelogramPerimeter;whiteSpace=wrap;html=1;fixedSize=1;fillColor=#6a00ff;fontColor=#ffffff;strokeColor=#3700CC;" vertex="1" parent="mlFN825ek47xAFWSFWhw-1">
          <mxGeometry x="380" y="180" width="170" height="60" as="geometry" />
        </mxCell>
        <mxCell id="ST6kr02EX80wUgen9KY--2" value="Translate State" style="shape=parallelogram;perimeter=parallelogramPerimeter;whiteSpace=wrap;html=1;fixedSize=1;fillColor=#6a00ff;fontColor=#ffffff;strokeColor=#3700CC;" vertex="1" parent="mlFN825ek47xAFWSFWhw-1">
          <mxGeometry x="210" y="180" width="120" height="60" as="geometry" />
        </mxCell>
        <mxCell id="ST6kr02EX80wUgen9KY--3" value="State Transitions Graph" style="shape=hexagon;perimeter=hexagonPerimeter2;whiteSpace=wrap;html=1;fixedSize=1;fillColor=#fa6800;fontColor=#000000;strokeColor=#C73500;" vertex="1" parent="mlFN825ek47xAFWSFWhw-1">
          <mxGeometry x="30" y="70" width="120" height="80" as="geometry" />
        </mxCell>
        <mxCell id="ST6kr02EX80wUgen9KY--5" value="Player Data" style="shape=hexagon;perimeter=hexagonPerimeter2;whiteSpace=wrap;html=1;fixedSize=1;fillColor=#fa6800;fontColor=#000000;strokeColor=#C73500;" vertex="1" parent="mlFN825ek47xAFWSFWhw-1">
          <mxGeometry x="30" y="170" width="120" height="80" as="geometry" />
        </mxCell>
        <mxCell id="ST6kr02EX80wUgen9KY--6" value="" style="endArrow=classic;html=1;rounded=0;entryX=1;entryY=0.5;entryDx=0;entryDy=0;exitX=0;exitY=0.5;exitDx=0;exitDy=0;fillColor=#1ba1e2;strokeColor=#006EAF;strokeWidth=2;" edge="1" parent="mlFN825ek47xAFWSFWhw-1" source="ST6kr02EX80wUgen9KY--2" target="ST6kr02EX80wUgen9KY--3">
          <mxGeometry width="50" height="50" relative="1" as="geometry">
            <mxPoint x="230" y="340" as="sourcePoint" />
            <mxPoint x="280" y="290" as="targetPoint" />
          </mxGeometry>
        </mxCell>
        <mxCell id="ST6kr02EX80wUgen9KY--7" value="" style="endArrow=classic;html=1;rounded=0;exitX=0;exitY=0.5;exitDx=0;exitDy=0;entryX=1;entryY=0.5;entryDx=0;entryDy=0;fillColor=#1ba1e2;strokeColor=#006EAF;strokeWidth=2;" edge="1" parent="mlFN825ek47xAFWSFWhw-1" source="ST6kr02EX80wUgen9KY--2" target="ST6kr02EX80wUgen9KY--5">
          <mxGeometry width="50" height="50" relative="1" as="geometry">
            <mxPoint x="150" y="240" as="sourcePoint" />
            <mxPoint x="170" y="210" as="targetPoint" />
          </mxGeometry>
        </mxCell>
        <mxCell id="ST6kr02EX80wUgen9KY--13" value="Current Player FSM State" style="shape=hexagon;perimeter=hexagonPerimeter2;whiteSpace=wrap;html=1;fixedSize=1;fillColor=#fa6800;fontColor=#000000;strokeColor=#C73500;" vertex="1" parent="mlFN825ek47xAFWSFWhw-1">
          <mxGeometry x="30" y="270" width="120" height="80" as="geometry" />
        </mxCell>
        <mxCell id="ST6kr02EX80wUgen9KY--14" value="" style="endArrow=classic;html=1;rounded=0;exitX=0;exitY=0.5;exitDx=0;exitDy=0;entryX=1;entryY=0.5;entryDx=0;entryDy=0;jumpStyle=none;fillColor=#1ba1e2;strokeColor=#006EAF;strokeWidth=2;" edge="1" parent="mlFN825ek47xAFWSFWhw-1" source="ST6kr02EX80wUgen9KY--2" target="ST6kr02EX80wUgen9KY--13">
          <mxGeometry width="50" height="50" relative="1" as="geometry">
            <mxPoint x="210" y="320" as="sourcePoint" />
            <mxPoint x="170" y="310" as="targetPoint" />
          </mxGeometry>
        </mxCell>
        <mxCell id="ST6kr02EX80wUgen9KY--18" value="" style="endArrow=classic;html=1;rounded=0;exitX=1;exitY=0.5;exitDx=0;exitDy=0;edgeStyle=orthogonalEdgeStyle;entryX=1;entryY=0.5;entryDx=0;entryDy=0;fillColor=#e51400;strokeColor=#B20000;" edge="1" parent="mlFN825ek47xAFWSFWhw-1" source="ST6kr02EX80wUgen9KY--9" target="ST6kr02EX80wUgen9KY--33">
          <mxGeometry width="50" height="50" relative="1" as="geometry">
            <mxPoint x="639.97" y="415" as="sourcePoint" />
            <mxPoint x="619.97" y="860" as="targetPoint" />
            <Array as="points">
              <mxPoint x="600" y="415" />
              <mxPoint x="600" y="860" />
            </Array>
          </mxGeometry>
        </mxCell>
        <mxCell id="ST6kr02EX80wUgen9KY--19" value="No" style="edgeLabel;html=1;align=center;verticalAlign=middle;resizable=0;points=[];" vertex="1" connectable="0" parent="ST6kr02EX80wUgen9KY--18">
          <mxGeometry x="0.0171" y="1" relative="1" as="geometry">
            <mxPoint as="offset" />
          </mxGeometry>
        </mxCell>
        <mxCell id="ST6kr02EX80wUgen9KY--30" value="" style="endArrow=classic;startArrow=none;html=1;rounded=0;exitX=0;exitY=0.5;exitDx=0;exitDy=0;entryX=0.625;entryY=1;entryDx=0;entryDy=0;edgeStyle=orthogonalEdgeStyle;endFill=1;startFill=0;fillColor=#1ba1e2;strokeColor=#006EAF;strokeWidth=2;" edge="1" parent="mlFN825ek47xAFWSFWhw-1" source="ST6kr02EX80wUgen9KY--12" target="ST6kr02EX80wUgen9KY--13">
          <mxGeometry width="50" height="50" relative="1" as="geometry">
            <mxPoint x="120" y="550" as="sourcePoint" />
            <mxPoint x="170" y="500" as="targetPoint" />
          </mxGeometry>
        </mxCell>
        <mxCell id="ST6kr02EX80wUgen9KY--34" value="" style="endArrow=classic;html=1;rounded=0;exitX=0;exitY=0.5;exitDx=0;exitDy=0;entryX=0.5;entryY=1;entryDx=0;entryDy=0;edgeStyle=orthogonalEdgeStyle;fillColor=#1ba1e2;strokeColor=#006EAF;strokeWidth=2;" edge="1" parent="mlFN825ek47xAFWSFWhw-1" source="ST6kr02EX80wUgen9KY--32" target="ST6kr02EX80wUgen9KY--13">
          <mxGeometry width="50" height="50" relative="1" as="geometry">
            <mxPoint x="40" y="740" as="sourcePoint" />
            <mxPoint x="90" y="390" as="targetPoint" />
          </mxGeometry>
        </mxCell>
        <mxCell id="ST6kr02EX80wUgen9KY--35" value="" style="endArrow=classic;html=1;rounded=0;entryX=0.375;entryY=1;entryDx=0;entryDy=0;exitX=0;exitY=0.5;exitDx=0;exitDy=0;edgeStyle=orthogonalEdgeStyle;fillColor=#1ba1e2;strokeColor=#006EAF;strokeWidth=2;" edge="1" parent="mlFN825ek47xAFWSFWhw-1" source="ST6kr02EX80wUgen9KY--33" target="ST6kr02EX80wUgen9KY--13">
          <mxGeometry width="50" height="50" relative="1" as="geometry">
            <mxPoint x="30" y="690" as="sourcePoint" />
            <mxPoint x="80" y="640" as="targetPoint" />
          </mxGeometry>
        </mxCell>
        <mxCell id="ST6kr02EX80wUgen9KY--39" value="" style="endArrow=classic;html=1;rounded=0;exitX=0.5;exitY=1;exitDx=0;exitDy=0;entryX=0.5;entryY=0;entryDx=0;entryDy=0;edgeStyle=orthogonalEdgeStyle;" edge="1" parent="mlFN825ek47xAFWSFWhw-1" source="ST6kr02EX80wUgen9KY--1" target="ST6kr02EX80wUgen9KY--9">
          <mxGeometry width="50" height="50" relative="1" as="geometry">
            <mxPoint x="420" y="320" as="sourcePoint" />
            <mxPoint x="470" y="270" as="targetPoint" />
          </mxGeometry>
        </mxCell>
        <mxCell id="ST6kr02EX80wUgen9KY--45" value="HandleWorldEvent" style="shape=parallelogram;perimeter=parallelogramPerimeter;whiteSpace=wrap;html=1;fixedSize=1;fillColor=#6a00ff;fontColor=#ffffff;strokeColor=#3700CC;" vertex="1" parent="mlFN825ek47xAFWSFWhw-1">
          <mxGeometry x="600" y="180" width="150" height="60" as="geometry" />
        </mxCell>
        <mxCell id="ST6kr02EX80wUgen9KY--47" value="" style="endArrow=classic;html=1;rounded=0;entryX=1;entryY=0.5;entryDx=0;entryDy=0;edgeStyle=elbowEdgeStyle;exitX=0.5;exitY=1;exitDx=0;exitDy=0;jumpStyle=arc;" edge="1" parent="mlFN825ek47xAFWSFWhw-1" source="ST6kr02EX80wUgen9KY--45" target="ST6kr02EX80wUgen9KY--12">
          <mxGeometry width="50" height="50" relative="1" as="geometry">
            <mxPoint x="670" y="258" as="sourcePoint" />
            <mxPoint x="330" y="603" as="targetPoint" />
            <Array as="points">
              <mxPoint x="675" y="420" />
            </Array>
          </mxGeometry>
        </mxCell>
        <mxCell id="ST6kr02EX80wUgen9KY--9" value="Did translation resolve to a state?" style="rhombus;whiteSpace=wrap;html=1;fillColor=#1ba1e2;fontColor=#ffffff;strokeColor=#006EAF;align=center;" vertex="1" parent="mlFN825ek47xAFWSFWhw-1">
          <mxGeometry x="380" y="330" width="170" height="170" as="geometry" />
        </mxCell>
        <mxCell id="ST6kr02EX80wUgen9KY--10" value="" style="endArrow=classic;html=1;rounded=0;exitX=0.5;exitY=1;exitDx=0;exitDy=0;entryX=0.5;entryY=0;entryDx=0;entryDy=0;fillColor=#60a917;strokeColor=#2D7600;" edge="1" parent="mlFN825ek47xAFWSFWhw-1" source="ST6kr02EX80wUgen9KY--9" target="ST6kr02EX80wUgen9KY--12">
          <mxGeometry width="50" height="50" relative="1" as="geometry">
            <mxPoint x="605" y="440" as="sourcePoint" />
            <mxPoint x="465" y="580" as="targetPoint" />
          </mxGeometry>
        </mxCell>
        <mxCell id="ST6kr02EX80wUgen9KY--11" value="Yes" style="edgeLabel;html=1;align=center;verticalAlign=middle;resizable=0;points=[];" vertex="1" connectable="0" parent="ST6kr02EX80wUgen9KY--10">
          <mxGeometry x="-0.0571" y="1" relative="1" as="geometry">
            <mxPoint as="offset" />
          </mxGeometry>
        </mxCell>
        <mxCell id="ST6kr02EX80wUgen9KY--12" value="OnExit" style="shape=parallelogram;perimeter=parallelogramPerimeter;whiteSpace=wrap;html=1;fixedSize=1;fillColor=#6a00ff;fontColor=#ffffff;strokeColor=#3700CC;" vertex="1" parent="mlFN825ek47xAFWSFWhw-1">
          <mxGeometry x="390" y="560" width="150" height="90" as="geometry" />
        </mxCell>
        <mxCell id="ST6kr02EX80wUgen9KY--32" value="OnEnter" style="shape=parallelogram;perimeter=parallelogramPerimeter;whiteSpace=wrap;html=1;fixedSize=1;fillColor=#6a00ff;fontColor=#ffffff;strokeColor=#3700CC;" vertex="1" parent="mlFN825ek47xAFWSFWhw-1">
          <mxGeometry x="390" y="710" width="150" height="60" as="geometry" />
        </mxCell>
        <mxCell id="ST6kr02EX80wUgen9KY--33" value="OnUpdate" style="shape=parallelogram;perimeter=parallelogramPerimeter;whiteSpace=wrap;html=1;fixedSize=1;fillColor=#6a00ff;fontColor=#ffffff;strokeColor=#3700CC;" vertex="1" parent="mlFN825ek47xAFWSFWhw-1">
          <mxGeometry x="390" y="830" width="150" height="60" as="geometry" />
        </mxCell>
        <mxCell id="ST6kr02EX80wUgen9KY--43" value="" style="endArrow=classic;html=1;rounded=0;exitX=0.5;exitY=1;exitDx=0;exitDy=0;" edge="1" parent="mlFN825ek47xAFWSFWhw-1" source="ST6kr02EX80wUgen9KY--32" target="ST6kr02EX80wUgen9KY--33">
          <mxGeometry width="50" height="50" relative="1" as="geometry">
            <mxPoint x="545" y="710" as="sourcePoint" />
            <mxPoint x="595" y="660" as="targetPoint" />
          </mxGeometry>
        </mxCell>
        <mxCell id="ST6kr02EX80wUgen9KY--42" value="" style="endArrow=classic;html=1;rounded=0;exitX=0.5;exitY=1;exitDx=0;exitDy=0;entryX=0.5;entryY=0;entryDx=0;entryDy=0;" edge="1" parent="mlFN825ek47xAFWSFWhw-1" source="ST6kr02EX80wUgen9KY--12" target="ST6kr02EX80wUgen9KY--32">
          <mxGeometry width="50" height="50" relative="1" as="geometry">
            <mxPoint x="545" y="710" as="sourcePoint" />
            <mxPoint x="595" y="660" as="targetPoint" />
          </mxGeometry>
        </mxCell>
        <mxCell id="ST6kr02EX80wUgen9KY--40" value="END" style="rounded=0;whiteSpace=wrap;html=1;fillColor=#a20025;fontColor=#ffffff;strokeColor=#6F0000;" vertex="1" parent="mlFN825ek47xAFWSFWhw-1">
          <mxGeometry x="405" y="980" width="120" height="60" as="geometry" />
        </mxCell>
        <mxCell id="ST6kr02EX80wUgen9KY--41" value="" style="endArrow=classic;html=1;rounded=0;exitX=0.5;exitY=1;exitDx=0;exitDy=0;entryX=0.5;entryY=0;entryDx=0;entryDy=0;" edge="1" parent="mlFN825ek47xAFWSFWhw-1" source="ST6kr02EX80wUgen9KY--33" target="ST6kr02EX80wUgen9KY--40">
          <mxGeometry width="50" height="50" relative="1" as="geometry">
            <mxPoint x="575" y="960" as="sourcePoint" />
            <mxPoint x="625" y="910" as="targetPoint" />
          </mxGeometry>
        </mxCell>
        <mxCell id="mlFN825ek47xAFWSFWhw-4" value="" style="endArrow=classic;html=1;rounded=0;exitX=0;exitY=0.5;exitDx=0;exitDy=0;entryX=0.543;entryY=0.006;entryDx=0;entryDy=0;edgeStyle=orthogonalEdgeStyle;entryPerimeter=0;" edge="1" parent="1" source="ST6kr02EX80wUgen9KY--17" target="ST6kr02EX80wUgen9KY--1">
          <mxGeometry width="50" height="50" relative="1" as="geometry">
            <mxPoint x="650" y="130" as="sourcePoint" />
            <mxPoint x="640" y="80" as="targetPoint" />
            <Array as="points">
              <mxPoint x="292" y="230" />
            </Array>
          </mxGeometry>
        </mxCell>
        <mxCell id="ST6kr02EX80wUgen9KY--15" value="&lt;h1 style=&quot;margin-top: 0px;&quot;&gt;Translate State&lt;/h1&gt;&lt;p&gt;&lt;/p&gt;&lt;ul&gt;&lt;li&gt;Takes in an input Player Event&lt;/li&gt;&lt;li&gt;Checks the state transitions graph to see what it should resolve to for the current state.&lt;/li&gt;&lt;li&gt;Adds an additional transformation to the even based on player data.&amp;nbsp;&lt;/li&gt;&lt;ul&gt;&lt;li&gt;E.G., the user input HardAttack, if they are grounded, this should resolve to the normal HardAttack attack in what every direction the input is pointing. But, if they are aerial, depending on what direction they are facing will be what attack gets triggerd, it could resolve to BackAir, or ForwardAir depending on which direction we are facing and what diection the input is inclined to.&lt;/li&gt;&lt;li&gt;E.G., do we go straight into Walk? Or do we need to turn first? Only way to tell is to check the current Player Data to see which way they are facing.&amp;nbsp;&lt;/li&gt;&lt;/ul&gt;&lt;/ul&gt;&lt;p&gt;&lt;/p&gt;" style="text;html=1;whiteSpace=wrap;overflow=hidden;rounded=0;fillColor=#008a00;fontColor=#ffffff;strokeColor=#005700;" vertex="1" parent="1">
          <mxGeometry x="-280" y="-400" width="320" height="320" as="geometry" />
        </mxCell>
        <mxCell id="ST6kr02EX80wUgen9KY--17" value="Input from Main Loop" style="ellipse;whiteSpace=wrap;html=1;aspect=fixed;fillColor=#60a917;fontColor=#ffffff;strokeColor=#2D7600;" vertex="1" parent="1">
          <mxGeometry x="870" y="190" width="80" height="80" as="geometry" />
        </mxCell>
        <mxCell id="ST6kr02EX80wUgen9KY--22" value="&lt;h1 style=&quot;margin-top: 0px;&quot;&gt;Player Data&lt;/h1&gt;&lt;div&gt;&lt;span style=&quot;white-space: pre;&quot;&gt;&#x9;&lt;/span&gt;Sourced from Player Components.&lt;br&gt;&lt;/div&gt;&lt;ul&gt;&lt;li&gt;Position&lt;/li&gt;&lt;li&gt;DirectionFacing&lt;/li&gt;&lt;li&gt;Velocity&amp;nbsp;&lt;/li&gt;&lt;li&gt;ect...&lt;/li&gt;&lt;/ul&gt;&lt;p&gt;&lt;/p&gt;" style="text;html=1;whiteSpace=wrap;overflow=hidden;rounded=0;fillColor=#008a00;fontColor=#ffffff;strokeColor=#005700;" vertex="1" parent="1">
          <mxGeometry x="-730" y="260" width="330" height="140" as="geometry" />
        </mxCell>
        <mxCell id="ST6kr02EX80wUgen9KY--23" value="&lt;h1 style=&quot;margin-top: 0px;&quot;&gt;Current Player FSM State&lt;/h1&gt;&lt;p&gt;The current FSMState instance assinged to the player.&lt;br&gt;&lt;/p&gt;&lt;p&gt;&lt;/p&gt;&lt;ul&gt;&lt;li&gt;StateId&lt;/li&gt;&lt;li&gt;OnEnter?&lt;/li&gt;&lt;li&gt;OnUpdate?&lt;/li&gt;&lt;li&gt;OnExit?&lt;/li&gt;&lt;li&gt;FrameCount?&lt;/li&gt;&lt;li&gt;InteruptionFrame?&lt;/li&gt;&lt;/ul&gt;&lt;p&gt;&lt;/p&gt;" style="text;html=1;whiteSpace=wrap;overflow=hidden;rounded=0;fillColor=#008a00;fontColor=#ffffff;strokeColor=#005700;" vertex="1" parent="1">
          <mxGeometry x="-730" y="470" width="330" height="210" as="geometry" />
        </mxCell>
        <mxCell id="ST6kr02EX80wUgen9KY--25" value="" style="endArrow=none;dashed=1;html=1;dashPattern=1 3;strokeWidth=2;rounded=0;entryX=0.5;entryY=1;entryDx=0;entryDy=0;exitX=0.5;exitY=0;exitDx=0;exitDy=0;" edge="1" parent="1" source="ST6kr02EX80wUgen9KY--2" target="ST6kr02EX80wUgen9KY--15">
          <mxGeometry width="50" height="50" relative="1" as="geometry">
            <mxPoint x="-350" y="450" as="sourcePoint" />
            <mxPoint x="-300" y="400" as="targetPoint" />
          </mxGeometry>
        </mxCell>
        <mxCell id="ST6kr02EX80wUgen9KY--26" value="" style="endArrow=none;dashed=1;html=1;dashPattern=1 3;strokeWidth=2;rounded=0;exitX=1;exitY=0.5;exitDx=0;exitDy=0;entryX=0;entryY=0.5;entryDx=0;entryDy=0;" edge="1" parent="1" source="ST6kr02EX80wUgen9KY--22" target="ST6kr02EX80wUgen9KY--5">
          <mxGeometry width="50" height="50" relative="1" as="geometry">
            <mxPoint x="-310" y="380" as="sourcePoint" />
            <mxPoint x="-260" y="330" as="targetPoint" />
          </mxGeometry>
        </mxCell>
        <mxCell id="ST6kr02EX80wUgen9KY--27" value="" style="endArrow=none;dashed=1;html=1;dashPattern=1 3;strokeWidth=2;rounded=0;exitX=1;exitY=0.5;exitDx=0;exitDy=0;entryX=0;entryY=0.5;entryDx=0;entryDy=0;" edge="1" parent="1" source="ST6kr02EX80wUgen9KY--23" target="ST6kr02EX80wUgen9KY--13">
          <mxGeometry width="50" height="50" relative="1" as="geometry">
            <mxPoint x="-340" y="500" as="sourcePoint" />
            <mxPoint x="-290" y="450" as="targetPoint" />
          </mxGeometry>
        </mxCell>
        <mxCell id="ST6kr02EX80wUgen9KY--28" value="&lt;h1 style=&quot;margin-top: 0px;&quot;&gt;State Transitions Graph&lt;/h1&gt;&lt;p&gt;Contains the graph of transtions for the FSM.&lt;/p&gt;&lt;p&gt;&lt;/p&gt;&lt;ul&gt;&lt;li&gt;Takes the Id of currently assigned state and the Input Event&lt;/li&gt;&lt;li&gt;Returns the state, if any, otherwise null.&lt;/li&gt;&lt;/ul&gt;&lt;p&gt;&lt;/p&gt;" style="text;html=1;whiteSpace=wrap;overflow=hidden;rounded=0;fillColor=#008a00;fontColor=#ffffff;strokeColor=#005700;" vertex="1" parent="1">
          <mxGeometry x="-730" y="60" width="330" height="130" as="geometry" />
        </mxCell>
        <mxCell id="ST6kr02EX80wUgen9KY--29" value="" style="endArrow=none;dashed=1;html=1;dashPattern=1 3;strokeWidth=2;rounded=0;exitX=1;exitY=0.5;exitDx=0;exitDy=0;entryX=0;entryY=0.5;entryDx=0;entryDy=0;" edge="1" parent="1" source="ST6kr02EX80wUgen9KY--28" target="ST6kr02EX80wUgen9KY--3">
          <mxGeometry width="50" height="50" relative="1" as="geometry">
            <mxPoint x="-330" y="140" as="sourcePoint" />
            <mxPoint x="-280" y="90" as="targetPoint" />
          </mxGeometry>
        </mxCell>
        <mxCell id="ST6kr02EX80wUgen9KY--44" value="Event From World" style="ellipse;whiteSpace=wrap;html=1;aspect=fixed;fillColor=#60a917;fontColor=#ffffff;strokeColor=#2D7600;" vertex="1" parent="1">
          <mxGeometry x="870" y="290" width="80" height="80" as="geometry" />
        </mxCell>
        <mxCell id="ST6kr02EX80wUgen9KY--46" value="" style="endArrow=classic;html=1;rounded=0;exitX=0;exitY=0.5;exitDx=0;exitDy=0;entryX=1;entryY=0.5;entryDx=0;entryDy=0;edgeStyle=orthogonalEdgeStyle;" edge="1" parent="1" source="ST6kr02EX80wUgen9KY--44" target="ST6kr02EX80wUgen9KY--45">
          <mxGeometry width="50" height="50" relative="1" as="geometry">
            <mxPoint x="690" y="500" as="sourcePoint" />
            <mxPoint x="740" y="450" as="targetPoint" />
            <Array as="points">
              <mxPoint x="780" y="330" />
              <mxPoint x="780" y="330" />
            </Array>
          </mxGeometry>
        </mxCell>
        <mxCell id="ST6kr02EX80wUgen9KY--48" value="&lt;h1 style=&quot;margin-top: 0px;&quot;&gt;HandleWorldEvent&lt;/h1&gt;&lt;p&gt;Events can come from the world simulation, such as if a player lands on the stage, the world needs to send an event to the FSM to force the players state into the land FSM State. Skips the translation step, all world events only have one translation.&amp;nbsp;&lt;/p&gt;" style="text;html=1;whiteSpace=wrap;overflow=hidden;rounded=0;fillColor=#008a00;fontColor=#ffffff;strokeColor=#005700;" vertex="1" parent="1">
          <mxGeometry x="480" y="-400" width="290" height="170" as="geometry" />
        </mxCell>
        <mxCell id="ST6kr02EX80wUgen9KY--49" value="" style="endArrow=none;dashed=1;html=1;dashPattern=1 3;strokeWidth=2;rounded=0;entryX=0.5;entryY=1;entryDx=0;entryDy=0;exitX=0.5;exitY=0;exitDx=0;exitDy=0;" edge="1" parent="1" source="ST6kr02EX80wUgen9KY--45" target="ST6kr02EX80wUgen9KY--48">
          <mxGeometry width="50" height="50" relative="1" as="geometry">
            <mxPoint x="600" y="-80" as="sourcePoint" />
            <mxPoint x="650" y="-130" as="targetPoint" />
          </mxGeometry>
        </mxCell>
        <mxCell id="z20X6xy9bfyd8tWEUIQm-35" value="Player State Graph" style="swimlane;whiteSpace=wrap;html=1;" vertex="1" parent="1">
          <mxGeometry x="-580" y="1350" width="1530" height="1050" as="geometry" />
        </mxCell>
        <mxCell id="3dVRkKuiYGaOCQ3q1q3X-1" value="IDLE" style="ellipse;whiteSpace=wrap;html=1;" vertex="1" parent="z20X6xy9bfyd8tWEUIQm-35">
          <mxGeometry x="210" y="250" width="120" height="80" as="geometry" />
        </mxCell>
        <mxCell id="z20X6xy9bfyd8tWEUIQm-1" value="START_WALK" style="ellipse;whiteSpace=wrap;html=1;" vertex="1" parent="z20X6xy9bfyd8tWEUIQm-35">
          <mxGeometry x="960" y="100" width="120" height="80" as="geometry" />
        </mxCell>
        <mxCell id="z20X6xy9bfyd8tWEUIQm-2" value="JUMP" style="ellipse;whiteSpace=wrap;html=1;" vertex="1" parent="z20X6xy9bfyd8tWEUIQm-35">
          <mxGeometry x="830" y="580" width="120" height="80" as="geometry" />
        </mxCell>
        <mxCell id="z20X6xy9bfyd8tWEUIQm-3" value="JUMP_SQUAT" style="ellipse;whiteSpace=wrap;html=1;" vertex="1" parent="z20X6xy9bfyd8tWEUIQm-35">
          <mxGeometry x="660" y="580" width="120" height="80" as="geometry" />
        </mxCell>
        <mxCell id="z20X6xy9bfyd8tWEUIQm-4" value="DASH" style="ellipse;whiteSpace=wrap;html=1;" vertex="1" parent="z20X6xy9bfyd8tWEUIQm-35">
          <mxGeometry x="210" y="580" width="120" height="80" as="geometry" />
        </mxCell>
        <mxCell id="z20X6xy9bfyd8tWEUIQm-5" value="RUN" style="ellipse;whiteSpace=wrap;html=1;" vertex="1" parent="z20X6xy9bfyd8tWEUIQm-35">
          <mxGeometry x="210" y="730" width="120" height="80" as="geometry" />
        </mxCell>
        <mxCell id="z20X6xy9bfyd8tWEUIQm-6" value="WALK" style="ellipse;whiteSpace=wrap;html=1;" vertex="1" parent="z20X6xy9bfyd8tWEUIQm-35">
          <mxGeometry x="960" y="240" width="120" height="80" as="geometry" />
        </mxCell>
        <mxCell id="z20X6xy9bfyd8tWEUIQm-7" value="TURN" style="ellipse;whiteSpace=wrap;html=1;" vertex="1" parent="z20X6xy9bfyd8tWEUIQm-35">
          <mxGeometry x="960" y="390" width="120" height="80" as="geometry" />
        </mxCell>
        <mxCell id="z20X6xy9bfyd8tWEUIQm-8" value="STOP_RUN" style="ellipse;whiteSpace=wrap;html=1;" vertex="1" parent="z20X6xy9bfyd8tWEUIQm-35">
          <mxGeometry x="660" y="730" width="120" height="80" as="geometry" />
        </mxCell>
        <mxCell id="z20X6xy9bfyd8tWEUIQm-9" value="RUN_TURN" style="ellipse;whiteSpace=wrap;html=1;" vertex="1" parent="z20X6xy9bfyd8tWEUIQm-35">
          <mxGeometry x="420" y="870" width="120" height="80" as="geometry" />
        </mxCell>
        <mxCell id="z20X6xy9bfyd8tWEUIQm-10" value="" style="endArrow=classic;html=1;rounded=0;exitX=1;exitY=1;exitDx=0;exitDy=0;entryX=0.5;entryY=0;entryDx=0;entryDy=0;" edge="1" parent="z20X6xy9bfyd8tWEUIQm-35" source="3dVRkKuiYGaOCQ3q1q3X-1" target="z20X6xy9bfyd8tWEUIQm-3">
          <mxGeometry width="50" height="50" relative="1" as="geometry">
            <mxPoint x="380" y="420" as="sourcePoint" />
            <mxPoint x="430" y="370" as="targetPoint" />
          </mxGeometry>
        </mxCell>
        <mxCell id="z20X6xy9bfyd8tWEUIQm-11" value="" style="endArrow=classic;html=1;rounded=0;exitX=0.5;exitY=1;exitDx=0;exitDy=0;entryX=0.5;entryY=0;entryDx=0;entryDy=0;" edge="1" parent="z20X6xy9bfyd8tWEUIQm-35" source="3dVRkKuiYGaOCQ3q1q3X-1" target="z20X6xy9bfyd8tWEUIQm-4">
          <mxGeometry width="50" height="50" relative="1" as="geometry">
            <mxPoint x="10" y="480" as="sourcePoint" />
            <mxPoint x="60" y="430" as="targetPoint" />
          </mxGeometry>
        </mxCell>
        <mxCell id="z20X6xy9bfyd8tWEUIQm-12" value="" style="endArrow=classic;html=1;rounded=0;exitX=1;exitY=0;exitDx=0;exitDy=0;entryX=0;entryY=0.5;entryDx=0;entryDy=0;startArrow=classic;startFill=1;fillColor=#1ba1e2;strokeColor=#006EAF;" edge="1" parent="z20X6xy9bfyd8tWEUIQm-35" source="3dVRkKuiYGaOCQ3q1q3X-1" target="z20X6xy9bfyd8tWEUIQm-1">
          <mxGeometry width="50" height="50" relative="1" as="geometry">
            <mxPoint x="110" y="240" as="sourcePoint" />
            <mxPoint x="160" y="190" as="targetPoint" />
          </mxGeometry>
        </mxCell>
        <mxCell id="z20X6xy9bfyd8tWEUIQm-13" value="" style="endArrow=classic;html=1;rounded=0;exitX=0.5;exitY=1;exitDx=0;exitDy=0;entryX=0.5;entryY=0;entryDx=0;entryDy=0;fillColor=#e3c800;strokeColor=#B09500;" edge="1" parent="z20X6xy9bfyd8tWEUIQm-35" source="z20X6xy9bfyd8tWEUIQm-1" target="z20X6xy9bfyd8tWEUIQm-6">
          <mxGeometry width="50" height="50" relative="1" as="geometry">
            <mxPoint x="1010" y="510" as="sourcePoint" />
            <mxPoint x="1060" y="460" as="targetPoint" />
          </mxGeometry>
        </mxCell>
        <mxCell id="z20X6xy9bfyd8tWEUIQm-14" value="" style="endArrow=classic;html=1;rounded=0;exitX=0.95;exitY=0.768;exitDx=0;exitDy=0;entryX=0;entryY=0.5;entryDx=0;entryDy=0;exitPerimeter=0;" edge="1" parent="z20X6xy9bfyd8tWEUIQm-35" source="3dVRkKuiYGaOCQ3q1q3X-1" target="z20X6xy9bfyd8tWEUIQm-7">
          <mxGeometry width="50" height="50" relative="1" as="geometry">
            <mxPoint x="90" y="380" as="sourcePoint" />
            <mxPoint x="140" y="330" as="targetPoint" />
          </mxGeometry>
        </mxCell>
        <mxCell id="z20X6xy9bfyd8tWEUIQm-16" value="" style="endArrow=classic;html=1;rounded=0;exitX=0.5;exitY=1;exitDx=0;exitDy=0;entryX=0.5;entryY=0;entryDx=0;entryDy=0;fillColor=#e3c800;strokeColor=#B09500;" edge="1" parent="z20X6xy9bfyd8tWEUIQm-35" source="z20X6xy9bfyd8tWEUIQm-4" target="z20X6xy9bfyd8tWEUIQm-5">
          <mxGeometry width="50" height="50" relative="1" as="geometry">
            <mxPoint x="40" y="730" as="sourcePoint" />
            <mxPoint x="90" y="680" as="targetPoint" />
          </mxGeometry>
        </mxCell>
        <mxCell id="z20X6xy9bfyd8tWEUIQm-18" value="" style="endArrow=classic;html=1;rounded=0;exitX=0;exitY=0.5;exitDx=0;exitDy=0;entryX=1;entryY=0.5;entryDx=0;entryDy=0;" edge="1" parent="z20X6xy9bfyd8tWEUIQm-35" source="z20X6xy9bfyd8tWEUIQm-6" target="3dVRkKuiYGaOCQ3q1q3X-1">
          <mxGeometry width="50" height="50" relative="1" as="geometry">
            <mxPoint x="70" y="420" as="sourcePoint" />
            <mxPoint x="370" y="320" as="targetPoint" />
          </mxGeometry>
        </mxCell>
        <mxCell id="z20X6xy9bfyd8tWEUIQm-19" value="" style="endArrow=classic;html=1;rounded=0;exitX=1;exitY=1;exitDx=0;exitDy=0;entryX=0;entryY=0.5;entryDx=0;entryDy=0;" edge="1" parent="z20X6xy9bfyd8tWEUIQm-35" source="z20X6xy9bfyd8tWEUIQm-4" target="z20X6xy9bfyd8tWEUIQm-8">
          <mxGeometry width="50" height="50" relative="1" as="geometry">
            <mxPoint x="490" y="820" as="sourcePoint" />
            <mxPoint x="540" y="770" as="targetPoint" />
          </mxGeometry>
        </mxCell>
        <mxCell id="z20X6xy9bfyd8tWEUIQm-20" value="" style="endArrow=classic;html=1;rounded=0;exitX=0.5;exitY=1;exitDx=0;exitDy=0;entryX=0;entryY=0.5;entryDx=0;entryDy=0;" edge="1" parent="z20X6xy9bfyd8tWEUIQm-35" source="z20X6xy9bfyd8tWEUIQm-5" target="z20X6xy9bfyd8tWEUIQm-9">
          <mxGeometry width="50" height="50" relative="1" as="geometry">
            <mxPoint x="-110" y="850" as="sourcePoint" />
            <mxPoint x="-60" y="800" as="targetPoint" />
          </mxGeometry>
        </mxCell>
        <mxCell id="z20X6xy9bfyd8tWEUIQm-21" value="" style="endArrow=classic;html=1;rounded=0;exitX=1;exitY=0.5;exitDx=0;exitDy=0;entryX=0;entryY=0.5;entryDx=0;entryDy=0;" edge="1" parent="z20X6xy9bfyd8tWEUIQm-35" source="z20X6xy9bfyd8tWEUIQm-5" target="z20X6xy9bfyd8tWEUIQm-8">
          <mxGeometry width="50" height="50" relative="1" as="geometry">
            <mxPoint x="280" y="830" as="sourcePoint" />
            <mxPoint x="330" y="780" as="targetPoint" />
          </mxGeometry>
        </mxCell>
        <mxCell id="z20X6xy9bfyd8tWEUIQm-22" value="" style="endArrow=classic;html=1;rounded=0;exitX=1;exitY=0.5;exitDx=0;exitDy=0;entryX=0;entryY=0.5;entryDx=0;entryDy=0;" edge="1" parent="z20X6xy9bfyd8tWEUIQm-35" source="z20X6xy9bfyd8tWEUIQm-4" target="z20X6xy9bfyd8tWEUIQm-3">
          <mxGeometry width="50" height="50" relative="1" as="geometry">
            <mxPoint x="590" y="420" as="sourcePoint" />
            <mxPoint x="640" y="370" as="targetPoint" />
          </mxGeometry>
        </mxCell>
        <mxCell id="z20X6xy9bfyd8tWEUIQm-23" value="" style="endArrow=classic;html=1;rounded=0;exitX=0.5;exitY=0;exitDx=0;exitDy=0;entryX=0.5;entryY=1;entryDx=0;entryDy=0;" edge="1" parent="z20X6xy9bfyd8tWEUIQm-35" source="z20X6xy9bfyd8tWEUIQm-8" target="z20X6xy9bfyd8tWEUIQm-3">
          <mxGeometry width="50" height="50" relative="1" as="geometry">
            <mxPoint x="520" y="790" as="sourcePoint" />
            <mxPoint x="570" y="740" as="targetPoint" />
          </mxGeometry>
        </mxCell>
        <mxCell id="z20X6xy9bfyd8tWEUIQm-24" value="" style="endArrow=classic;html=1;rounded=0;exitX=0.921;exitY=0.171;exitDx=0;exitDy=0;exitPerimeter=0;entryX=0;entryY=1;entryDx=0;entryDy=0;" edge="1" parent="z20X6xy9bfyd8tWEUIQm-35" source="z20X6xy9bfyd8tWEUIQm-5" target="z20X6xy9bfyd8tWEUIQm-3">
          <mxGeometry width="50" height="50" relative="1" as="geometry">
            <mxPoint x="350" y="700" as="sourcePoint" />
            <mxPoint x="400" y="650" as="targetPoint" />
          </mxGeometry>
        </mxCell>
        <mxCell id="z20X6xy9bfyd8tWEUIQm-25" value="" style="endArrow=classic;html=1;rounded=0;exitX=1;exitY=0;exitDx=0;exitDy=0;entryX=0;entryY=1;entryDx=0;entryDy=0;" edge="1" parent="z20X6xy9bfyd8tWEUIQm-35" source="z20X6xy9bfyd8tWEUIQm-9" target="z20X6xy9bfyd8tWEUIQm-3">
          <mxGeometry width="50" height="50" relative="1" as="geometry">
            <mxPoint x="270" y="880" as="sourcePoint" />
            <mxPoint x="320" y="830" as="targetPoint" />
          </mxGeometry>
        </mxCell>
        <mxCell id="z20X6xy9bfyd8tWEUIQm-26" value="" style="endArrow=classic;html=1;rounded=0;exitX=1;exitY=0.5;exitDx=0;exitDy=0;entryX=0;entryY=0.5;entryDx=0;entryDy=0;" edge="1" parent="z20X6xy9bfyd8tWEUIQm-35" source="z20X6xy9bfyd8tWEUIQm-3" target="z20X6xy9bfyd8tWEUIQm-2">
          <mxGeometry width="50" height="50" relative="1" as="geometry">
            <mxPoint x="650" y="760" as="sourcePoint" />
            <mxPoint x="640" y="620" as="targetPoint" />
          </mxGeometry>
        </mxCell>
        <mxCell id="z20X6xy9bfyd8tWEUIQm-28" value="" style="endArrow=classic;html=1;rounded=0;exitX=0;exitY=1;exitDx=0;exitDy=0;" edge="1" parent="z20X6xy9bfyd8tWEUIQm-35" source="z20X6xy9bfyd8tWEUIQm-1">
          <mxGeometry width="50" height="50" relative="1" as="geometry">
            <mxPoint x="1210" y="240" as="sourcePoint" />
            <mxPoint x="720" y="580" as="targetPoint" />
          </mxGeometry>
        </mxCell>
        <mxCell id="z20X6xy9bfyd8tWEUIQm-29" value="" style="endArrow=classic;html=1;rounded=0;exitX=0;exitY=1;exitDx=0;exitDy=0;entryX=0.5;entryY=0;entryDx=0;entryDy=0;" edge="1" parent="z20X6xy9bfyd8tWEUIQm-35" source="z20X6xy9bfyd8tWEUIQm-6" target="z20X6xy9bfyd8tWEUIQm-3">
          <mxGeometry width="50" height="50" relative="1" as="geometry">
            <mxPoint x="490" y="520" as="sourcePoint" />
            <mxPoint x="540" y="470" as="targetPoint" />
          </mxGeometry>
        </mxCell>
        <mxCell id="z20X6xy9bfyd8tWEUIQm-30" value="" style="endArrow=classic;html=1;rounded=0;exitX=0;exitY=1;exitDx=0;exitDy=0;entryX=0.5;entryY=0;entryDx=0;entryDy=0;" edge="1" parent="z20X6xy9bfyd8tWEUIQm-35" source="z20X6xy9bfyd8tWEUIQm-7" target="z20X6xy9bfyd8tWEUIQm-3">
          <mxGeometry width="50" height="50" relative="1" as="geometry">
            <mxPoint x="920" y="570" as="sourcePoint" />
            <mxPoint x="970" y="520" as="targetPoint" />
          </mxGeometry>
        </mxCell>
        <mxCell id="z20X6xy9bfyd8tWEUIQm-31" value="NFALL" style="ellipse;whiteSpace=wrap;html=1;" vertex="1" parent="z20X6xy9bfyd8tWEUIQm-35">
          <mxGeometry x="1190" y="580" width="120" height="80" as="geometry" />
        </mxCell>
        <mxCell id="z20X6xy9bfyd8tWEUIQm-32" value="FFALL" style="ellipse;whiteSpace=wrap;html=1;" vertex="1" parent="z20X6xy9bfyd8tWEUIQm-35">
          <mxGeometry x="1190" y="750" width="120" height="80" as="geometry" />
        </mxCell>
        <mxCell id="z20X6xy9bfyd8tWEUIQm-33" value="" style="endArrow=classic;html=1;rounded=0;exitX=1;exitY=0.5;exitDx=0;exitDy=0;entryX=0;entryY=0.5;entryDx=0;entryDy=0;" edge="1" parent="z20X6xy9bfyd8tWEUIQm-35" source="z20X6xy9bfyd8tWEUIQm-2" target="z20X6xy9bfyd8tWEUIQm-31">
          <mxGeometry width="50" height="50" relative="1" as="geometry">
            <mxPoint x="1020" y="620" as="sourcePoint" />
            <mxPoint x="1070" y="570" as="targetPoint" />
          </mxGeometry>
        </mxCell>
        <mxCell id="z20X6xy9bfyd8tWEUIQm-34" value="" style="endArrow=classic;html=1;rounded=0;exitX=0.5;exitY=1;exitDx=0;exitDy=0;entryX=0.5;entryY=0;entryDx=0;entryDy=0;" edge="1" parent="z20X6xy9bfyd8tWEUIQm-35" source="z20X6xy9bfyd8tWEUIQm-31" target="z20X6xy9bfyd8tWEUIQm-32">
          <mxGeometry width="50" height="50" relative="1" as="geometry">
            <mxPoint x="1420" y="730" as="sourcePoint" />
            <mxPoint x="1470" y="680" as="targetPoint" />
          </mxGeometry>
        </mxCell>
        <mxCell id="z20X6xy9bfyd8tWEUIQm-39" value="" style="endArrow=classic;html=1;rounded=0;exitX=0.037;exitY=0.711;exitDx=0;exitDy=0;exitPerimeter=0;entryX=1;entryY=0;entryDx=0;entryDy=0;" edge="1" parent="z20X6xy9bfyd8tWEUIQm-35" source="z20X6xy9bfyd8tWEUIQm-1" target="z20X6xy9bfyd8tWEUIQm-4">
          <mxGeometry width="50" height="50" relative="1" as="geometry">
            <mxPoint x="350" y="570" as="sourcePoint" />
            <mxPoint x="400" y="520" as="targetPoint" />
          </mxGeometry>
        </mxCell>
        <mxCell id="z20X6xy9bfyd8tWEUIQm-41" value="" style="endArrow=classic;html=1;rounded=0;exitX=0.5;exitY=1;exitDx=0;exitDy=0;entryX=0.5;entryY=0;entryDx=0;entryDy=0;" edge="1" parent="z20X6xy9bfyd8tWEUIQm-35" source="z20X6xy9bfyd8tWEUIQm-6" target="z20X6xy9bfyd8tWEUIQm-7">
          <mxGeometry width="50" height="50" relative="1" as="geometry">
            <mxPoint x="1110" y="380" as="sourcePoint" />
            <mxPoint x="1160" y="330" as="targetPoint" />
          </mxGeometry>
        </mxCell>
        <mxCell id="z20X6xy9bfyd8tWEUIQm-42" value="" style="endArrow=classic;html=1;rounded=0;exitX=0.093;exitY=0.161;exitDx=0;exitDy=0;exitPerimeter=0;fillColor=#e3c800;strokeColor=#B09500;entryX=0.973;entryY=0.65;entryDx=0;entryDy=0;entryPerimeter=0;" edge="1" parent="z20X6xy9bfyd8tWEUIQm-35" source="z20X6xy9bfyd8tWEUIQm-7" target="3dVRkKuiYGaOCQ3q1q3X-1">
          <mxGeometry width="50" height="50" relative="1" as="geometry">
            <mxPoint x="950" y="400" as="sourcePoint" />
            <mxPoint x="330" y="300" as="targetPoint" />
          </mxGeometry>
        </mxCell>
        <mxCell id="z20X6xy9bfyd8tWEUIQm-43" value="DASH_TURN" style="ellipse;whiteSpace=wrap;html=1;" vertex="1" parent="z20X6xy9bfyd8tWEUIQm-35">
          <mxGeometry x="30" y="450" width="120" height="80" as="geometry" />
        </mxCell>
        <mxCell id="z20X6xy9bfyd8tWEUIQm-44" value="" style="endArrow=classic;html=1;rounded=0;exitX=0;exitY=0.5;exitDx=0;exitDy=0;entryX=1;entryY=1;entryDx=0;entryDy=0;" edge="1" parent="z20X6xy9bfyd8tWEUIQm-35" source="z20X6xy9bfyd8tWEUIQm-4" target="z20X6xy9bfyd8tWEUIQm-43">
          <mxGeometry width="50" height="50" relative="1" as="geometry">
            <mxPoint x="160" y="540" as="sourcePoint" />
            <mxPoint x="210" y="490" as="targetPoint" />
          </mxGeometry>
        </mxCell>
        <mxCell id="z20X6xy9bfyd8tWEUIQm-45" value="" style="endArrow=classic;html=1;rounded=0;exitX=0.991;exitY=0.677;exitDx=0;exitDy=0;entryX=0;entryY=0;entryDx=0;entryDy=0;fillColor=#e3c800;strokeColor=#B09500;exitPerimeter=0;" edge="1" parent="z20X6xy9bfyd8tWEUIQm-35" source="z20X6xy9bfyd8tWEUIQm-43" target="z20X6xy9bfyd8tWEUIQm-4">
          <mxGeometry width="50" height="50" relative="1" as="geometry">
            <mxPoint x="120" y="500" as="sourcePoint" />
            <mxPoint x="170" y="450" as="targetPoint" />
          </mxGeometry>
        </mxCell>
        <mxCell id="z20X6xy9bfyd8tWEUIQm-48" value="&lt;ul&gt;&lt;li style=&quot;text-align: left;&quot;&gt;Yellow: Default transition&lt;/li&gt;&lt;li style=&quot;text-align: left;&quot;&gt;Blue: Two Way relationship&lt;/li&gt;&lt;/ul&gt;" style="text;html=1;align=center;verticalAlign=middle;resizable=0;points=[];autosize=1;strokeColor=none;fillColor=none;" vertex="1" parent="z20X6xy9bfyd8tWEUIQm-35">
          <mxGeometry x="10" y="38" width="210" height="70" as="geometry" />
        </mxCell>
        <mxCell id="z20X6xy9bfyd8tWEUIQm-50" value="" style="endArrow=classic;html=1;rounded=0;exitX=1;exitY=0.5;exitDx=0;exitDy=0;entryX=0.029;entryY=0.302;entryDx=0;entryDy=0;entryPerimeter=0;" edge="1" parent="z20X6xy9bfyd8tWEUIQm-35" source="z20X6xy9bfyd8tWEUIQm-43" target="z20X6xy9bfyd8tWEUIQm-3">
          <mxGeometry width="50" height="50" relative="1" as="geometry">
            <mxPoint x="180" y="430" as="sourcePoint" />
            <mxPoint x="230" y="380" as="targetPoint" />
          </mxGeometry>
        </mxCell>
        <mxCell id="z20X6xy9bfyd8tWEUIQm-51" value="" style="endArrow=classic;html=1;rounded=0;exitX=0;exitY=0;exitDx=0;exitDy=0;entryX=0.767;entryY=0.978;entryDx=0;entryDy=0;entryPerimeter=0;" edge="1" parent="z20X6xy9bfyd8tWEUIQm-35" source="z20X6xy9bfyd8tWEUIQm-8" target="3dVRkKuiYGaOCQ3q1q3X-1">
          <mxGeometry width="50" height="50" relative="1" as="geometry">
            <mxPoint x="840" y="810" as="sourcePoint" />
            <mxPoint x="890" y="760" as="targetPoint" />
          </mxGeometry>
        </mxCell>
        <mxCell id="z20X6xy9bfyd8tWEUIQm-54" value="" style="curved=1;endArrow=classic;html=1;rounded=0;exitX=1;exitY=0;exitDx=0;exitDy=0;entryX=0.5;entryY=0;entryDx=0;entryDy=0;" edge="1" parent="z20X6xy9bfyd8tWEUIQm-35" source="z20X6xy9bfyd8tWEUIQm-2" target="z20X6xy9bfyd8tWEUIQm-2">
          <mxGeometry width="50" height="50" relative="1" as="geometry">
            <mxPoint x="1060" y="580" as="sourcePoint" />
            <mxPoint x="1110" y="530" as="targetPoint" />
            <Array as="points">
              <mxPoint x="960" y="560" />
              <mxPoint x="910" y="540" />
            </Array>
          </mxGeometry>
        </mxCell>
        <mxCell id="z20X6xy9bfyd8tWEUIQm-36" value="World State Graph" style="swimlane;whiteSpace=wrap;html=1;" vertex="1" parent="1">
          <mxGeometry x="1210" y="1350" width="500" height="1040" as="geometry" />
        </mxCell>
        <mxCell id="z20X6xy9bfyd8tWEUIQm-37" value="LAND" style="ellipse;whiteSpace=wrap;html=1;" vertex="1" parent="z20X6xy9bfyd8tWEUIQm-36">
          <mxGeometry x="200" y="110" width="120" height="80" as="geometry" />
        </mxCell>
        <mxCell id="z20X6xy9bfyd8tWEUIQm-38" value="SOFT_LAND" style="ellipse;whiteSpace=wrap;html=1;" vertex="1" parent="z20X6xy9bfyd8tWEUIQm-36">
          <mxGeometry x="200" y="270" width="120" height="80" as="geometry" />
        </mxCell>
      </root>
    </mxGraphModel>
  </diagram>
</mxfile>
